{
    "asset" : {
        "generator" : "Khronos glTF Blender I/O v1.0.5",
        "version" : "2.0"
    },
    "scene" : 0,
    "scenes" : [
        {
            "extras" : {
                "glTF2ExportSettings" : {
                    "export_animations" : 0,
                    "export_extras" : 1,
                    "export_format" : "GLTF_EMBEDDED",
                    "export_image_format" : "NAME",
                    "export_morph" : 0,
                    "export_selected" : 1,
                    "export_skins" : 0,
                    "export_yup" : 0
                }
            },
            "name" : "Scene",
            "nodes" : [
                0
            ]
        }
    ],
    "nodes" : [
        {
            "mesh" : 0,
            "name" : "Sword",
            "rotation" : [
                -0.2705979645252228,
                0.6532815098762512,
                -0.2705979645252228,
                0.6532815098762512
            ],
            "scale" : [
                0.16147641837596893,
                0.16147641837596893,
                1.9000877141952515
            ],
            "translation" : [
                2.7637414932250977,
                0,
                0
            ]
        }
    ],
    "materials" : [
        {
            "doubleSided" : true,
            "name" : "steel",
            "pbrMetallicRoughness" : {}
        },
        {
            "doubleSided" : true,
            "name" : "brown",
            "pbrMetallicRoughness" : {}
        },
        {
            "doubleSided" : true,
            "name" : "gold",
            "pbrMetallicRoughness" : {}
        }
    ],
    "meshes" : [
        {
            "name" : "Sword",
            "primitives" : [
                {
                    "attributes" : {
                        "POSITION" : 0,
                        "NORMAL" : 1
                    },
                    "indices" : 2,
                    "material" : 0
                },
                {
                    "attributes" : {
                        "POSITION" : 3,
                        "NORMAL" : 4
                    },
                    "indices" : 5,
                    "material" : 1
                },
                {
                    "attributes" : {
                        "POSITION" : 6,
                        "NORMAL" : 7
                    },
                    "indices" : 8,
                    "material" : 2
                }
            ]
        }
    ],
    "accessors" : [
        {
            "bufferView" : 0,
            "componentType" : 5126,
            "count" : 122,
            "max" : [
                0.8736526966094971,
                0.873652458190918,
                1.1499998569488525
            ],
            "min" : [
                -0.8736526966094971,
                -0.873652458190918,
                -1.806666612625122
            ],
            "type" : "VEC3"
        },
        {
            "bufferView" : 1,
            "componentType" : 5126,
            "count" : 122,
            "type" : "VEC3"
        },
        {
            "bufferView" : 2,
            "componentType" : 5123,
            "count" : 180,
            "type" : "SCALAR"
        },
        {
            "bufferView" : 3,
            "componentType" : 5126,
            "count" : 96,
            "max" : [
                1.0983058214187622,
                1.098305344581604,
                -1.2096664905548096
            ],
            "min" : [
                -1.0983059406280518,
                -1.0983054637908936,
                -1.7036666870117188
            ],
            "type" : "VEC3"
        },
        {
            "bufferView" : 4,
            "componentType" : 5126,
            "count" : 96,
            "type" : "VEC3"
        },
        {
            "bufferView" : 5,
            "componentType" : 5123,
            "count" : 144,
            "type" : "SCALAR"
        },
        {
            "bufferView" : 6,
            "componentType" : 5126,
            "count" : 110,
            "max" : [
                4.436040878295898,
                4.436039447784424,
                -0.9415610432624817
            ],
            "min" : [
                -4.436040878295898,
                -4.436039447784424,
                -1.1666666269302368
            ],
            "type" : "VEC3"
        },
        {
            "bufferView" : 7,
            "componentType" : 5126,
            "count" : 110,
            "type" : "VEC3"
        },
        {
            "bufferView" : 8,
            "componentType" : 5123,
            "count" : 150,
            "type" : "SCALAR"
        }
    ],
    "bufferViews" : [
        {
            "buffer" : 0,
            "byteLength" : 1464,
            "byteOffset" : 0
        },
        {
            "buffer" : 0,
            "byteLength" : 1464,
            "byteOffset" : 1464
        },
        {
            "buffer" : 0,
            "byteLength" : 360,
            "byteOffset" : 2928
        },
        {
            "buffer" : 0,
            "byteLength" : 1152,
            "byteOffset" : 3288
        },
        {
            "buffer" : 0,
            "byteLength" : 1152,
            "byteOffset" : 4440
        },
        {
            "buffer" : 0,
            "byteLength" : 288,
            "byteOffset" : 5592
        },
        {
            "buffer" : 0,
            "byteLength" : 1320,
            "byteOffset" : 5880
        },
        {
            "buffer" : 0,
            "byteLength" : 1320,
            "byteOffset" : 7200
        },
        {
            "buffer" : 0,
            "byteLength" : 300,
            "byteOffset" : 8520
        }
    ],
    "buffers" : [
        {
            "byteLength" : 8820,
            "uri" : "data:application/octet-stream;base64,"
        }
    ]
}
